<svg width="28" height="31" viewBox="0 0 28 31" fill="none" xmlns="http://www.w3.org/2000/svg">
<path d="M22.4 21.1364L28 15.5L22.4 9.86364V14.0909H15.316C15.0833 11.9842 14.3279 9.97021 13.1194 8.23426C11.9108 6.49832 10.2879 5.09617 8.4 4.15682C8.37984 3.04851 7.92868 1.99235 7.1434 1.21514C6.35812 0.437936 5.30134 0.00165875 4.2 0C1.876 0 0 1.88818 0 4.22727C0 6.56636 1.876 8.45455 4.2 8.45455C5.53 8.45455 6.692 7.82045 7.462 6.84818C10.122 8.31364 12.04 10.9486 12.488 14.0909H8.148C7.56 12.4564 6.02 11.2727 4.2 11.2727C1.876 11.2727 0 13.1609 0 15.5C0 17.8391 1.876 19.7273 4.2 19.7273C6.02 19.7273 7.56 18.5436 8.148 16.9091H12.488C12.04 20.0514 10.122 22.6864 7.476 24.1518C6.692 23.1795 5.53 22.5455 4.2 22.5455C1.876 22.5455 0 24.4336 0 26.7727C0 29.1118 1.876 31 4.2 31C5.30056 31.0001 6.35689 30.564 7.14032 29.786C7.92376 29.008 8.37128 27.9508 8.386 26.8432C10.2739 25.9038 11.8968 24.5017 13.1054 22.7657C14.3139 21.0298 15.0693 19.0158 15.302 16.9091H22.4V21.1364Z" fill="white"/>
</svg>
