<svg width="32" height="31" viewBox="0 0 32 31" fill="none" xmlns="http://www.w3.org/2000/svg">
<path d="M19.2803 0.5C20.783 0.5 22.0166 1.0529 23.0146 2.17383C24.0224 3.30563 24.5121 4.63671 24.4873 6.19238L24.4795 6.7002H28.9062L29.1943 6.7207C29.851 6.80089 30.3992 7.096 30.8594 7.61621C31.3139 8.13001 31.5253 8.70527 31.498 9.36816L31.4717 9.6582L31.4707 9.66406L29.1572 28.2607C29.07 28.9174 28.787 29.4455 28.3018 29.8682C27.8144 30.2926 27.257 30.5009 26.6074 30.5H7.32617C6.61232 30.4999 6.01353 30.2504 5.50293 29.7373C5.11526 29.3477 4.87833 28.906 4.78613 28.4004H6.94043C8.35767 28.4004 9.57885 27.8958 10.5732 26.8965C11.5675 25.8973 12.0684 24.6719 12.0684 23.25C12.0684 22.9357 12.0397 22.6317 11.9814 22.3389C11.9712 22.2875 11.9575 22.2371 11.9463 22.1865C13.2034 22.1039 14.2954 21.6056 15.2002 20.6963C16.1945 19.6971 16.6953 18.4718 16.6953 17.0498C16.6953 15.605 16.196 14.3706 15.1973 13.3818C14.2648 12.4589 13.1349 11.9654 11.832 11.9062L11.5684 11.9004H6.73633L7.05176 9.36133V9.35645C7.14367 8.54831 7.43734 7.9135 7.91602 7.42188C8.32726 6.9996 8.81091 6.76467 9.3877 6.71191L9.64062 6.7002H13.1748L13.2227 6.25293C13.4191 4.4021 14.0444 3.00276 15.0615 2.00488C16.0037 1.08074 17.281 0.567116 18.9434 0.505859L19.2803 0.5ZM1.54199 22.2002H6.94043C7.25049 22.2002 7.48842 22.2999 7.68652 22.499C7.88463 22.6981 7.98413 22.9371 7.9834 23.249C7.98262 23.5622 7.8821 23.803 7.68359 24.0039C7.51178 24.1777 7.31015 24.2752 7.05566 24.2959L6.94336 24.2998H1.54199C1.23216 24.2997 0.995582 24.2004 0.798828 24.002C0.600898 23.8024 0.500777 23.5622 0.5 23.249C0.499269 22.9377 0.599025 22.6992 0.797852 22.5C0.997615 22.3 1.2349 22.2003 1.54199 22.2002ZM4.62695 16H11.5684C11.8783 16 12.1154 16.0999 12.3135 16.2988C12.5117 16.498 12.6111 16.7368 12.6104 17.0488C12.6096 17.3621 12.5091 17.6028 12.3105 17.8037C12.1387 17.9776 11.9372 18.0751 11.6826 18.0957L11.5703 18.0996H4.62695C4.31707 18.0995 4.08057 18.0002 3.88379 17.8018C3.68585 17.6021 3.5857 17.3621 3.58496 17.0488C3.58423 16.7374 3.68388 16.4991 3.88281 16.2998C4.0826 16.0997 4.3198 16.0001 4.62695 16ZM18.8945 2.59961C17.8837 2.59965 17.0299 2.91721 16.3916 3.58984C15.7711 4.24373 15.4229 5.11155 15.3125 6.14746L15.2539 6.7002H22.4258L22.4404 6.21484C22.4702 5.22471 22.1286 4.36268 21.4287 3.65918C20.7757 3.003 19.9847 2.64732 19.0781 2.60449L18.8955 2.59961H18.8945Z" fill="white" stroke="black"/>
</svg>
