<svg width="26" height="31" viewBox="0 0 26 31" fill="none" xmlns="http://www.w3.org/2000/svg">
<path d="M3.27778 31C2.51389 31 1.86018 30.7243 1.31667 30.1729C0.773148 29.6214 0.500926 28.9578 0.5 28.1818V2.81818C0.5 2.04318 0.772222 1.37997 1.31667 0.828546C1.86111 0.277121 2.51481 0.000939394 3.27778 0H17.1667C17.9306 0 18.5847 0.276182 19.1292 0.828546C19.6736 1.38091 19.9454 2.04412 19.9444 2.81818V7.18636C20.3611 7.35076 20.6968 7.60909 20.9514 7.96136C21.206 8.31364 21.3333 8.71288 21.3333 9.15909V11.9773C21.3333 12.4235 21.206 12.8227 20.9514 13.175C20.6968 13.5273 20.3611 13.7856 19.9444 13.95V16.9091H14.3889C12.0741 16.9091 10.1065 17.7311 8.48611 19.375C6.86574 21.0189 6.05556 23.0152 6.05556 25.3636V31H3.27778ZM20.5 30.4364L18.5556 28.4284L21.5764 25.3636L18.5556 22.2989L20.5 20.2909L25.5 25.3636L20.5 30.4364ZM13.8333 30.4364L8.83333 25.3636L13.8333 20.2909L15.7778 22.2989L12.7569 25.3636L15.7778 28.4284L13.8333 30.4364ZM10.2222 7.04545C10.6157 7.04545 10.9458 6.91018 11.2125 6.63964C11.4792 6.36909 11.612 6.03467 11.6111 5.63636C11.6102 5.23806 11.4769 4.90364 11.2111 4.63309C10.9454 4.36255 10.6157 4.22727 10.2222 4.22727C9.8287 4.22727 9.49907 4.36255 9.23333 4.63309C8.96759 4.90364 8.83426 5.23806 8.83333 5.63636C8.83241 6.03467 8.96574 6.36956 9.23333 6.64105C9.50093 6.91253 9.83055 7.04733 10.2222 7.04545Z" fill="white"/>
</svg>
