<svg width="30" height="31" viewBox="0 0 30 31" fill="none" xmlns="http://www.w3.org/2000/svg">
<path d="M7.23 22.1429L13.5 25.5086V29.5238H3C1.335 29.5238 0 28.21 0 26.5714V2.95238C0 2.16936 0.31607 1.41841 0.87868 0.864732C1.44129 0.311053 2.20435 0 3 0H4.5V10.3333L8.25 8.11905L12 10.3333V0H21C21.7956 0 22.5587 0.311053 23.1213 0.864732C23.6839 1.41841 24 2.16936 24 2.95238V15.559L21.75 14.3486L7.23 22.1429ZM30 22.1429L21.75 17.7143L13.5 22.1429L21.75 26.5714L30 22.1429ZM16.5 25.2281V28.1805L21.75 31L27 28.1805V25.2281L21.75 28.0476L16.5 25.2281Z" fill="white"/>
</svg>
